<?xml version="1.0" encoding="UTF-8"?>
<svg width="16px" height="16px" viewBox="0 0 16 16" version="1.1" xmlns="http://www.w3.org/2000/svg" xmlns:xlink="http://www.w3.org/1999/xlink">
    <!-- Generator: Sketch 47.1 (45422) - http://www.bohemiancoding.com/sketch -->
    <title>Page 1</title>
    <desc>Created with Sketch.</desc>
    <defs></defs>
    <g id="Web-Structure" stroke="none" stroke-width="1" fill="none" fill-rule="evenodd">
        <g id="Our-Team" transform="translate(-449.000000, -2469.000000)" fill="#1474DF">
            <g id="Group-7" transform="translate(221.000000, 2446.000000)">
                <g id="Group-2" transform="translate(0.000000, 1.000000)">
                    <path d="M231.2,28.9333333 C232.444444,31.4222222 234.577778,33.4666667 237.066667,34.8 L239.022222,32.8444444 C239.288854,32.5778126 239.644444,32.4889237 239.911111,32.6666667 C240.888889,33.0222222 241.955521,33.2 243.111111,33.2 C243.644444,33.2 244,33.5555556 244,34.0888889 L244,37.1111111 C244,37.6444444 243.644444,38 243.111111,38 C234.755556,38 228,31.2444444 228,22.8888889 C228,22.3555556 228.355556,22 228.888889,22 L232,22 C232.533333,22 232.888889,22.3555556 232.888889,22.8888889 C232.888889,23.9555556 233.066667,25.0222222 233.422222,26.0888889 C233.511111,26.3555556 233.422222,26.7111111 233.244444,26.9777778 L231.2,28.9333333 Z" id="Page-1"></path>
                </g>
            </g>
        </g>
    </g>
</svg>