<?xml version="1.0" encoding="UTF-8"?>
<svg width="16px" height="16px" viewBox="0 0 16 16" version="1.1" xmlns="http://www.w3.org/2000/svg" xmlns:xlink="http://www.w3.org/1999/xlink">
    <!-- Generator: Sketch 47.1 (45422) - http://www.bohemiancoding.com/sketch -->
    <title>Fill 1</title>
    <desc>Created with Sketch.</desc>
    <defs></defs>
    <g id="Web-Structure" stroke="none" stroke-width="1" fill="none" fill-rule="evenodd">
        <g id="Our-Team" transform="translate(-336.000000, -2468.000000)" fill="#1474DF">
            <g id="Group-7" transform="translate(221.000000, 2446.000000)">
                <g id="Group-2" transform="translate(0.000000, 1.000000)">
                    <g id="Page-1" transform="translate(115.000000, 21.000000)">
                        <path d="M13.8439,0 L2.1559,0 C0.9649,0 -0.0001,0.965 -0.0001,2.156 L-0.0001,13.844 C-0.0001,15.035 0.9649,16 2.1559,16 L7.9209,16 L7.9299,10.282 L6.4449,10.282 C6.2519,10.282 6.0949,10.126 6.0939,9.933 L6.0869,8.09 C6.0869,7.896 6.2439,7.738 6.4379,7.738 L7.9209,7.738 L7.9209,5.958 C7.9209,3.891 9.1829,2.766 11.0259,2.766 L12.5389,2.766 C12.7329,2.766 12.8899,2.923 12.8899,3.116 L12.8899,4.67 C12.8899,4.864 12.7329,5.021 12.5389,5.021 L11.6109,5.021 C10.6079,5.021 10.4139,5.498 10.4139,6.197 L10.4139,7.739 L12.6169,7.739 C12.8269,7.739 12.9899,7.922 12.9649,8.13 L12.7469,9.973 C12.7259,10.15 12.5759,10.282 12.3989,10.282 L10.4239,10.282 L10.4139,16 L13.8439,16 C15.0349,16 15.9999,15.035 15.9999,13.844 L15.9999,2.156 C15.9999,0.965 15.0349,0 13.8439,0" id="Fill-1"></path>
                    </g>
                </g>
            </g>
        </g>
    </g>
</svg>