<?xml version="1.0" encoding="UTF-8"?>
<svg width="96px" height="80px" viewBox="0 0 96 80" version="1.1" xmlns="http://www.w3.org/2000/svg" xmlns:xlink="http://www.w3.org/1999/xlink">
    <!-- Generator: Sketch 47.1 (45422) - http://www.bohemiancoding.com/sketch -->
    <title>beach</title>
    <desc>Created with Sketch.</desc>
    <defs></defs>
    <g id="Final-Web" stroke="none" stroke-width="1" fill="none" fill-rule="evenodd">
        <g id="Our-Team" transform="translate(-110.000000, -1448.000000)">
            <g id="beach" transform="translate(110.000000, 1448.000000)">
                <g>
                    <ellipse id="Oval" fill="#F04348" fill-rule="nonzero" transform="translate(35.808030, 59.221886) rotate(-171.940394) translate(-35.808030, -59.221886) " cx="35.8080297" cy="59.2218864" rx="11.815791" ry="11.7864582"></ellipse>
                    <path d="M39.1396875,55.6157009 C43.9381875,60.026729 46.3366875,65.2166355 44.497125,67.2074766 C42.6575625,69.1983178 37.2763125,67.2362617 32.4778125,62.8252336 C27.6793125,58.4142056 25.2808125,53.2242991 27.120375,51.2334579 C28.960125,49.2426168 34.341375,51.204486 39.1396875,55.6157009 Z" id="Shape" fill="#F7F8EB" fill-rule="nonzero"></path>
                    <rect id="Rectangle-path" fill="#875450" fill-rule="nonzero" x="45.103125" y="20.646729" width="5.7946875" height="56.4616822"></rect>
                    <path d="M48,0 L47.998125,25.9566355 C47.9941875,26.0029907 47.9923125,26.0491589 47.9865,26.095514 C47.49,29.8641121 26.7448125,29.4573832 28.3074375,25.9566355 C26.240625,28.1175701 21.494625,28.9426168 17.154375,28.9138318 C17.0443125,28.9138318 16.936125,28.9138318 16.8260625,28.9099065 C16.727625,28.9099065 16.629,28.9080374 16.5324375,28.9041121 L16.5015,28.9041121 C16.3816875,28.9001869 16.2620625,28.8964486 16.144125,28.8925234 C15.4468125,28.8656075 14.7669375,28.8173832 14.1178125,28.7499065 C14.1159375,28.7499065 14.1159375,28.7499065 14.113875,28.7499065 C10.3318125,28.3527103 7.6025625,27.2829907 8.6146875,25.9585047 C18.35775,13.1970093 24.7648125,2.52523364 41.5194375,0.391401869 C41.5213125,0.391401869 41.5213125,0.391401869 41.523375,0.38953271 C43.453125,0.142803738 45.51975,0.0117757009 47.745,0.00205607477 C47.8280625,0 47.913,0 48,0 Z" id="Shape" fill="#F04348" fill-rule="nonzero"></path>
                    <path d="M47.745,0.00186915888 C36.9860625,0.161869159 35.3055,10.2824299 28.3074375,25.9566355 C26.240625,28.1175701 21.494625,28.9426168 17.154375,28.9138318 C17.0443125,28.9138318 16.9340625,28.9138318 16.8260625,28.9099065 C16.727625,28.9099065 16.629,28.9080374 16.5324375,28.9041121 L16.5015,28.9041121 C16.3816875,28.9001869 16.2620625,28.8964486 16.144125,28.8925234 C15.4468125,28.8656075 14.7669375,28.8173832 14.1178125,28.7499065 C17.31075,28.4143925 20.283375,27.5469159 21.803625,25.9566355 C28.6395,13.3648598 34.028625,4.17738318 41.5194375,0.391401869 C41.5213125,0.391401869 41.5213125,0.391401869 41.523375,0.38953271 C43.4529375,0.142616822 45.51975,0.011588785 47.745,0.00186915888 Z" id="Shape" fill="#D83D49" fill-rule="nonzero"></path>
                    <path d="M48,0 L47.997375,25.9564486 C47.99475,26.0037383 47.992125,26.0482243 47.986875,26.0953271 C47.4894375,29.8633645 26.7440625,29.4575701 28.30725,25.9564486 C35.3049375,10.2813084 36.9864375,0.161121495 47.7448125,0.00261682243 C47.829,0 47.9131875,0 48,0 Z" id="Shape" fill="#7FCBCA" fill-rule="nonzero"></path>
                    <path d="M47.7448125,0.00280373832 C47.7230625,0.00317757009 47.7013125,0.00355140187 47.67975,0.00392523364 C44.6394375,0.0601869159 42.218625,2.56803738 42.21825,5.60280374 L42.2161875,25.9566355 C42.2135625,26.0039252 42.2109375,26.0484112 42.2056875,26.095514 C42.013875,27.5482243 38.812125,28.38 35.0398125,28.6536449 C40.6400625,29.057757 47.69925,28.2745794 47.986875,26.095514 C47.992125,26.0482243 47.99475,26.0037383 47.997375,25.9566355 L48,0 C47.9131875,0 47.829,0 47.7448125,0.00280373832 Z" id="Shape" fill="#37B0AE" fill-rule="nonzero"></path>
                    <path d="M48,0 L48.002625,25.9564486 C48.00525,26.0037383 48.007875,26.0482243 48.013125,26.0953271 C48.5105625,29.8633645 69.2559375,29.4575701 67.69275,25.9564486 C72.2323125,30.7054206 89.7118125,29.0074766 87.3855,25.9592523 C76.5193125,11.7263551 69.8034375,0.091588785 48.255375,0.00280373832 C48.171,0 48.0868125,0 48,0 Z" id="Shape" fill="#FC9642" fill-rule="nonzero"></path>
                    <path d="M87.3855,25.9592523 C76.5193125,11.7263551 69.80325,0.091588785 48.2551875,0.00280373832 C48.171,0 48.0868125,0 48,0 L48,0.30953271 C65.2670625,2.23682243 71.71575,13.0246729 81.590625,25.9592523 C82.633125,27.3252336 79.6978125,28.4194393 75.7329375,28.784486 C81.9845625,29.3626168 88.903875,27.948972 87.3855,25.9592523 Z" id="Shape" fill="#F4812C" fill-rule="nonzero"></path>
                    <path d="M48,0 L48.002625,25.9564486 C48.00525,26.0037383 48.007875,26.0482243 48.013125,26.0953271 C48.5105625,29.8633645 69.2559375,29.4575701 67.69275,25.9564486 C60.6950625,10.2814953 59.0135625,0.161121495 48.2551875,0.00280373832 C48.171,0 48.0868125,0 48,0 Z" id="Shape" fill="#FAD87C" fill-rule="nonzero"></path>
                    <path d="M67.69275,25.9564486 C60.6950625,10.2814953 59.0135625,0.161121495 48.2551875,0.00280373832 C48.171,0 48.0868125,0 48,0 L48.0001875,1.27775701 C54.1344375,4.4682243 56.33325,13.4416822 61.92,25.9564486 C62.5794375,27.4334579 59.2689375,28.3596262 55.1833125,28.6538318 C61.19475,29.0895327 68.653125,28.1074766 67.69275,25.9564486 Z" id="Shape" fill="#FEBE40" fill-rule="nonzero"></path>
                    <path d="M30.840375,75.1816822 L88.5624375,75.1816822 C88.5624375,75.1816822 76.5826875,61.6674766 59.7013125,61.6674766 C42.8199375,61.6674766 30.840375,75.1816822 30.840375,75.1816822 Z" id="Shape" fill="#DBA67F" fill-rule="nonzero"></path>
                    <path d="M59.7015,61.6674766 C58.695,61.6674766 57.7065,61.7168224 56.736375,61.8071028 C72.037875,63.2321495 82.6321875,75.1816822 82.6321875,75.1816822 L88.562625,75.1816822 C88.5624375,75.1816822 76.582875,61.6674766 59.7015,61.6674766 Z" id="Shape" fill="#BD8F6D" fill-rule="nonzero"></path>
                    <path d="M4.1555625,75.2024299 L61.877625,75.2024299 C61.877625,75.2024299 49.897875,66.4700935 33.0165,66.4700935 C16.135125,66.4700935 4.1555625,75.2024299 4.1555625,75.2024299 Z" id="Shape" fill="#F2C09A" fill-rule="nonzero"></path>
                    <path d="M93.1010625,80 L2.8989375,80 C1.297875,80 0,78.7061682 0,77.1100935 L0,77.1069159 C0,75.5108411 1.297875,74.2170093 2.8989375,74.2170093 L93.100875,74.2170093 C94.7019375,74.2170093 95.9998125,75.5108411 95.9998125,77.1069159 L95.9998125,77.1100935 C96,78.7061682 94.702125,80 93.1010625,80 Z" id="Shape" fill="#875450" fill-rule="nonzero"></path>
                    <path d="M93.1025625,74.2168224 L87.307875,74.2168224 C88.908,74.2168224 90.2053125,75.5114019 90.2053125,77.1084112 C90.2053125,78.7054206 88.908,80 87.307875,80 L93.1025625,80 C94.7026875,80 96,78.7054206 96,77.1084112 C96,75.5114019 94.7026875,74.2168224 93.1025625,74.2168224 Z" id="Shape" fill="#784B48" fill-rule="nonzero"></path>
                </g>
            </g>
        </g>
    </g>
</svg>