<?xml version="1.0" encoding="UTF-8"?>
<svg width="629px" height="167px" viewBox="0 0 629 167" version="1.1" xmlns="http://www.w3.org/2000/svg" xmlns:xlink="http://www.w3.org/1999/xlink">
    <!-- Generator: Sketch 47.1 (45422) - http://www.bohemiancoding.com/sketch -->
    <title>Kubita</title>
    <desc>Created with Sketch.</desc>
    <defs>
        <polygon id="path-1" points="128.945 1.25850297 128.945 131.405275 1.25534459 131.405275 1.25534459 1.25850297 128.945 1.25850297"></polygon>
        <polygon id="path-3" points="7.41927342e-16 30.494495 7.41927342e-16 0.334336634 30.0934179 0.334336634 30.0934179 30.494495"></polygon>
    </defs>
    <g id="Final-Web" stroke="none" stroke-width="1" fill="none" fill-rule="evenodd">
        <g id="Home-Page/Products" transform="translate(-366.000000, -232.000000)">
            <g id="Kubita" transform="translate(366.000000, 232.000000)">
                <path d="M50.8381367,36.6586139 C51.2829177,36.6586139 51.7276987,36.6669307 52.1757989,36.6802376 L60.1868359,36.9463762 L60.1868359,44.982099 L60.1868359,59.4267723 L60.1868359,67.5007525 L52.1343082,67.730297 C47.417638,67.8666931 43.6187435,69.087604 40.8405219,71.3697426 C36.3844137,75.0208317 34.698229,77.2996436 34.1538702,78.1662574 C32.5556459,80.9241188 31.7457462,85.102495 31.7457462,90.5932673 L31.7457462,155.394693 L31.7457462,163.701545 L23.4575509,163.701545 L8.28852718,163.701545 L0.000331926121,163.701545 L0.000331926121,155.394693 L0.000331926121,47.0746139 L0.000331926121,38.7677624 L8.28852718,38.7677624 L21.749791,38.7677624 L30.0379863,38.7677624 L30.0379863,42.3672871 C30.4313187,42.1377426 30.8263108,41.9115248 31.2296011,41.690297 L31.3175615,41.6420594 L31.4055219,41.5954851 C37.7270549,38.3203168 44.2626802,36.6586139 50.8381367,36.6586139" id="Fill-1" fill="#FFFFFF"></path>
                <path d="M335.858782,36.6586139 C337.325896,36.6586139 338.8345,36.7218218 340.311571,36.849901 C354.040035,37.9593663 365.468252,43.2322376 374.272592,52.510495 C383.594737,62.3060594 388.318046,75.2320792 388.318046,90.927604 L388.318046,155.730693 L388.318046,164.037545 L380.029851,164.037545 L365.051684,164.037545 L356.763489,164.037545 L356.763489,155.730693 L356.763489,89.2176634 C356.763489,82.8536238 354.956151,77.3861386 351.392925,72.9582574 C348.232988,69.0260594 344.141998,67.1165149 338.885948,67.1165149 C333.070603,67.1165149 328.09337,68.9961188 323.763394,72.7752871 C319.813473,76.3398812 317.972943,80.5365545 317.972943,85.9890693 L317.972943,155.730693 L317.972943,164.037545 L309.684748,164.037545 L294.515724,164.037545 L286.227529,164.037545 L286.227529,155.730693 L286.227529,85.9890693 C286.227529,80.5365545 284.360444,76.366495 280.249539,72.7752871 C276.029099,68.9678416 271.144806,67.1165149 265.317843,67.1165149 C260.11822,67.1165149 256.203151,68.974495 252.996745,72.9582574 C249.463392,77.3495446 247.817038,82.514297 247.817038,89.2176634 L247.817038,155.730693 L247.817038,164.037545 L239.528843,164.037545 L224.549017,164.037545 L216.260822,164.037545 L216.260822,155.730693 L216.260822,90.927604 C216.260822,75.0990099 220.924384,62.1729901 230.035756,52.5953267 C238.664175,43.2671683 250.05422,37.9676832 263.862347,36.849901 C265.369291,36.7218218 266.877896,36.6586139 268.345009,36.6586139 C281.608777,36.6586139 292.924138,41.6869703 302.101896,51.6355644 C311.279653,41.690297 322.593355,36.6586139 335.858782,36.6586139" id="Fill-3" fill="#FFFFFF"></path>
                <path d="M467.3548,135.45143 C458.849193,135.45143 451.550138,132.211192 445.044386,125.547747 C438.175175,118.357014 434.957151,110.063469 435.267502,100.261251 C435.421848,91.014598 438.643191,83.2699644 445.119069,76.4634693 C451.254724,70.0129347 458.533864,66.8758257 467.371397,66.8758257 C476.56741,66.8758257 484.181795,70.0977663 490.644397,76.7296079 C497.345985,83.4462812 500.645331,91.1443406 500.799676,100.327786 C500.950703,109.684222 497.936813,117.631786 491.583747,124.619588 C485.312003,131.519232 478.145718,134.94743 469.037666,135.409846 C468.485009,135.438123 467.915755,135.45143 467.3548,135.45143 L467.3548,135.45143 Z M434.894085,0.663865347 L426.60589,0.663865347 L412.384515,0.663865347 L404.09632,0.663865347 L404.09632,8.97071683 L404.09632,100.377687 L404.09632,101.039707 C403.686391,118.954162 410.132397,134.598123 423.256755,147.53745 C435.891523,159.9944 450.770112,166.306875 467.479273,166.306875 C468.29747,166.306875 469.120647,166.293568 469.948803,166.263628 C487.300241,165.601608 502.102486,158.914875 513.960547,146.383073 C525.914866,133.751469 531.975837,118.591549 531.975837,101.330796 C531.975837,83.4080238 525.413658,67.7507564 512.480156,54.7898059 C500.371492,42.4459644 485.612397,36.160103 468.664249,36.160103 C467.821156,36.160103 466.973085,36.1767366 466.120035,36.2066772 C454.492663,36.6225188 444.046948,39.7546376 434.894085,45.5514693 L434.894085,8.97071683 L434.894085,0.663865347 Z" id="Fill-5" fill="#FFFFFF"></path>
                <g id="Group-9" transform="translate(499.548813, 35.399945)">
                    <mask id="mask-2" fill="white">
                        <use xlink:href="#path-1"></use>
                    </mask>
                    <g id="Clip-8"></g>
                    <path d="M65.7967193,100.54983 C65.1975926,100.54983 64.5901678,100.536523 63.9794237,100.504919 C54.8730306,100.198859 47.7532153,96.8305426 41.4549172,89.9059485 C35.2246639,83.0512158 32.272181,75.1036515 32.4331652,65.6158099 C32.5875108,56.0398099 35.7341704,48.5064238 42.3312021,41.8945426 C48.8668274,35.3425426 56.3152496,32.1588594 65.101334,32.1588594 L65.7220359,32.1638495 C74.6890201,32.1638495 81.7009594,35.2111366 87.9229145,41.7531564 C94.3539831,48.5114139 97.6383921,56.2793347 97.9587008,65.4910574 C98.0997694,75.3864238 94.9149383,83.4021861 87.9345319,90.7060277 C81.6412127,97.4426614 74.6259541,100.54983 65.7967193,100.54983 M64.4424607,1.25850297 L64.4424607,1.25850297 C47.5739752,1.25850297 32.7916454,7.60757228 20.5120385,20.1227406 C7.75113879,32.9090376 1.25534459,48.5679683 1.25534459,66.6154931 C1.25534459,84.0109782 7.2532496,99.1675723 19.0781177,111.669434 C31.0257984,124.296048 45.8645557,130.921236 63.1828011,131.362028 C63.9213367,131.388642 64.7445135,131.405275 65.5610517,131.405275 C82.3531942,131.405275 97.1189277,125.137711 109.451643,112.780562 C122.386804,99.8129584 128.945664,84.218899 128.945664,66.4258693 C128.945664,49.1634535 122.883033,34.0035327 110.930374,21.3719287 C99.1801889,8.73533465 84.3596876,1.96543366 66.9319066,1.30507723 C66.0888142,1.27513663 65.2639778,1.25850297 64.4424607,1.25850297" id="Fill-7" fill="#FFFFFF" mask="url(#mask-2)"></path>
                </g>
                <path d="M103.682269,85.9027406 C105.972559,80.9126416 109.623746,74.7731564 114.652427,70.6979089 C121.622876,65.108998 129.622295,62.3311762 138.750264,62.5790178 C148.077388,62.7470178 155.79467,65.3917703 162.333615,70.9640475 C167.196332,75.089196 170.731345,80.9126416 172.971847,85.9027406 L103.682269,85.9027406 Z M201.094287,97.3267406 C201.094287,82.2566416 194.917142,68.550503 183.565269,56.540998 C171.931258,44.4982257 157.713203,37.8281267 141.697768,36.7635723 C124.006105,35.7156515 108.184847,41.8368396 94.9575908,54.910899 C81.9626831,67.7021861 75.538253,83.321196 75.969757,101.252285 C76.1689127,118.085552 82.6398124,132.939414 95.2861976,145.36476 C107.550868,157.274463 121.938206,163.312483 138.086411,163.312483 C138.368549,163.312483 138.667282,163.312483 138.949419,163.279216 C151.927731,163.079612 163.893667,159.187335 174.465514,151.702186 C185.153535,144.150503 192.804432,134.072166 197.235646,121.197711 L199.774881,114.179968 L172.971847,114.179968 L171.478179,117.022661 C164.872849,130.895137 154.383984,137.580206 139.331134,137.746543 C129.705277,137.996048 121.42372,134.853949 114.021768,128.466622 C108.544987,123.759295 104.84401,119.170067 103.018417,110.853236 L201.094287,110.853236 L201.094287,97.3267406 Z" id="Fill-10" fill="#FFFFFF"></path>
                <g id="Group-14" transform="translate(0.000000, 0.469251)">
                    <mask id="mask-4" fill="white">
                        <use xlink:href="#path-3"></use>
                    </mask>
                    <g id="Clip-13"></g>
                    <path d="M30.0934179,15.4144158 C30.0934179,23.7428911 23.3569773,30.494495 15.0472069,30.494495 C6.73743641,30.494495 -0.000663852243,23.7428911 -0.000663852243,15.4144158 C-0.000663852243,7.08594059 6.73743641,0.334336634 15.0472069,0.334336634 C23.3569773,0.334336634 30.0934179,7.08594059 30.0934179,15.4144158" id="Fill-12" fill="#00D3FF" mask="url(#mask-4)"></path>
                </g>
            </g>
        </g>
    </g>
</svg>