<?xml version="1.0" encoding="UTF-8"?>
<svg width="94px" height="96px" viewBox="0 0 94 96" version="1.1" xmlns="http://www.w3.org/2000/svg" xmlns:xlink="http://www.w3.org/1999/xlink">
    <!-- Generator: Sketch 47.1 (45422) - http://www.bohemiancoding.com/sketch -->
    <title>confetti</title>
    <desc>Created with Sketch.</desc>
    <defs></defs>
    <g id="Final-Web" stroke="none" stroke-width="1" fill="none" fill-rule="evenodd">
        <g id="Our-Team" transform="translate(-654.000000, -1596.000000)">
            <g id="confetti" transform="translate(654.000000, 1596.000000)">
                <g>
                    <path d="M47.5804947,39.8130561 C35.2575518,27.4388358 21.7453996,20.9451642 17.3987442,25.3088732 C16.9217886,25.8106279 16.5708288,26.4191601 16.3748795,27.0843742 L16.304926,27.0141206 L12.1538224,44.0985281 L8.02020719,61.131842 L3.1202833,81.3010229 L0.0184820296,94.0744116 L18.3828626,87.0953514 L41.7409683,78.2194428 L60.3756237,71.1381954 L60.3533658,71.115842 C60.9771839,70.9160582 61.5479408,70.5771642 62.0227104,70.1243077 C66.3693658,65.7590021 59.9034376,52.1888732 47.5804947,39.8130561 Z" id="Shape" fill="#DD1C4B" fill-rule="nonzero"></path>
                    <ellipse id="Oval" fill="#000000" fill-rule="nonzero" opacity="0.11328125" transform="translate(39.711106, 47.711144) rotate(-135.000000) translate(-39.711106, -47.711144) " cx="39.7111058" cy="47.7111435" rx="31.5536889" ry="11.176608"></ellipse>
                    <path d="M58.6840211,71.6906445 C56.4590233,71.729763 54.2515137,71.2898794 52.2101438,70.4005322 L36.9793615,76.188474 L13.6133066,85.0563992 L1.08368288,89.8176798 L0.0184820296,94.2037422 L18.3828626,87.2246819 L41.7409683,78.3487734 L58.8430063,71.8503119 L58.6840211,71.6906445 Z" id="Shape" fill="#B21D48" fill-rule="nonzero"></path>
                    <g id="Group" transform="translate(29.014799, 9.380457)" fill-rule="nonzero" fill="#FFBF41">
                        <path d="M48.9064313,49.6964657 C48.7160465,49.6958669 48.5272516,49.661738 48.3483932,49.5958753 C40.2773108,46.5592017 31.5527992,45.7077755 23.0506681,47.1274179 L17.3717167,48.0774387 C16.5024651,48.2019792 15.6972051,47.5952432 15.5731966,46.722262 C15.4533615,45.8788191 16.0139831,45.0894636 16.8470655,44.9287983 L22.5276068,43.9707942 C31.5806216,42.4601414 40.8699281,43.3660541 49.4644693,46.5973222 C50.2907949,46.895501 50.7198562,47.8099958 50.4229514,48.6398669 C50.1936152,49.2809314 49.5847019,49.7052474 48.9064313,49.6964657 Z" id="Shape"></path>
                        <path d="M20.2890951,40.1164241 C19.4110994,40.1112349 18.7034165,39.3921331 18.7085835,38.5103701 C18.7121607,37.9016383 19.0599408,37.3479917 19.6054588,37.0827443 L52.992351,21.1160083 C53.7852896,20.7367983 54.7340338,21.074894 55.1116237,21.8712349 C55.4892135,22.6675759 55.1525624,23.6203909 54.3596237,23.9996008 L54.3596237,23.9996008 L20.9727315,39.9663368 C20.7588964,40.0667277 20.5253869,40.1180208 20.2890951,40.1164241 Z" id="Shape"></path>
                        <path d="M1.69736575,36.9230769 C1.48770402,36.9234761 1.2800296,36.881763 1.08686258,36.8001331 C0.276435518,36.4606403 -0.106520085,35.5257879 0.231522199,34.7118836 C0.231522199,34.7118836 0.231522199,34.711684 0.231522199,34.711684 L2.54316702,29.1408898 C6.09986469,20.6056715 6.92917125,11.1717256 4.91681607,2.14273597 C4.71053277,1.28552183 5.23538266,0.422918919 6.08873573,0.21575052 C6.94228753,0.00858212058 7.80120507,0.535683992 8.00748837,1.39269854 C8.0120592,1.41165904 8.01623256,1.43061954 8.02020719,1.44977963 C10.1760465,11.1218295 9.28712051,21.2275759 5.47644397,30.3703285 L3.1632093,35.9411227 C2.91638478,36.5352848 2.33847357,36.9224782 1.69736575,36.9230769 L1.69736575,36.9230769 Z" id="Shape"></path>
                    </g>
                    <ellipse id="Oval" fill="#D5557E" fill-rule="nonzero" cx="85.8704905" cy="62.2702703" rx="3.17970402" ry="3.19334719"></ellipse>
                    <ellipse id="Oval" fill="#DD95C1" fill-rule="nonzero" cx="47.7140423" cy="17.5634096" rx="3.17970402" ry="3.19334719"></ellipse>
                    <path d="M33.4053742,6.38669439 C31.6491839,6.38669439 30.2256702,4.95707277 30.2256702,3.19334719 C30.2256702,1.42962162 31.6491839,0 33.4053742,0 C35.1615645,0 36.5850782,1.42962162 36.5850782,3.19334719 C36.5850782,4.95707277 35.1615645,6.38669439 33.4053742,6.38669439 Z" id="Shape" fill="#7FCCCB" fill-rule="nonzero"></path>
                    <g id="Group" transform="translate(71.543340, 0.000000)" fill-rule="nonzero" fill="#2276BB">
                        <path d="M6.37789006,12.7733888 C5.49989429,12.7733888 4.78803805,12.0584782 4.78803805,11.1767152 L4.78803805,9.58004158 C4.78803805,8.69827859 5.49989429,7.98336798 6.37789006,7.98336798 C7.25588584,7.98336798 7.96774207,8.69827859 7.96774207,9.58004158 L7.96774207,11.1767152 C7.96774207,12.0584782 7.25608457,12.7733888 6.37789006,12.7733888 Z" id="Shape"></path>
                        <path d="M6.37789006,4.79002079 C5.49989429,4.79002079 4.78803805,4.07511019 4.78803805,3.19334719 L4.78803805,1.5966736 C4.78803805,0.714910603 5.49989429,0 6.37789006,0 C7.25588584,0 7.96774207,0.714910603 7.96774207,1.5966736 L7.96774207,3.19334719 C7.96774207,4.07511019 7.25608457,4.79002079 6.37789006,4.79002079 Z" id="Shape"></path>
                        <path d="M11.1474461,7.98336798 L9.55759408,7.98336798 C8.67959831,7.98336798 7.96774207,7.26845738 7.96774207,6.38669439 C7.96774207,5.50493139 8.67959831,4.79002079 9.55759408,4.79002079 L11.1474461,4.79002079 C12.0254419,4.79002079 12.7372981,5.50493139 12.7372981,6.38669439 C12.7372981,7.26845738 12.0256406,7.98336798 11.1474461,7.98336798 Z" id="Shape"></path>
                        <path d="M3.19818605,7.98336798 L1.60833404,7.98336798 C0.730338266,7.98336798 0.0184820296,7.26845738 0.0184820296,6.38669439 C0.0184820296,5.50493139 0.730338266,4.79002079 1.60833404,4.79002079 L3.19818605,4.79002079 C4.07618182,4.79002079 4.78803805,5.50493139 4.78803805,6.38669439 C4.78803805,7.26845738 4.07638055,7.98336798 3.19818605,7.98336798 Z" id="Shape"></path>
                    </g>
                    <path d="M12.6387273,46.3035343 C12.4606638,45.620158 12.3016786,44.930395 12.1538224,44.2278586 L8.02020719,61.2611726 L8.33817759,65.1554595 C9.03115433,73.4579626 12.5824863,81.2585114 18.3812727,87.2166985 L41.7409683,78.3487734 C41.6137801,78.3088565 41.4818224,78.2801164 41.3546342,78.2370062 C27.1900465,72.9031185 16.4837844,60.9971227 12.6387273,46.3035343 Z" id="Shape" fill="#FFFFFF" fill-rule="nonzero"></path>
                    <path d="M41.7409683,78.3487734 C41.6137801,78.3088565 41.4818224,78.2801164 41.3546342,78.2370062 C39.8244017,77.6552183 38.3255687,76.9927983 36.8648922,76.252341 L15.8247907,84.2468857 C16.6224989,85.285921 17.4764482,86.2800499 18.3828626,87.2246819 L41.7409683,78.3487734 Z" id="Shape" fill="#F6F6E7" fill-rule="nonzero"></path>
                    <polygon id="Shape" fill="#C9DA53" fill-rule="nonzero" points="66.7922664 19.126553 66.7922664 27.1434511 58.8096195 27.1434511 58.8096195 19.126553"></polygon>
                    <path d="M38.1749302,47.9002079 C37.2969345,47.9000083 36.585277,47.1848981 36.5854757,46.3031351 C36.5856744,45.8508773 36.7766554,45.4199751 37.1113192,45.1172058 L53.0098393,30.7471435 C53.6738013,30.1701455 54.6777928,30.2429938 55.2523256,30.9098046 C55.8109598,31.5580541 55.7600846,32.5336216 55.1370613,33.1198004 L39.2385412,47.4898628 C38.9468034,47.7539127 38.5678224,47.9000083 38.1749302,47.9002079 L38.1749302,47.9002079 Z" id="Shape" fill="#FFBF41" fill-rule="nonzero"></path>
                    <g id="Group" transform="translate(0.000000, 1.596674)" fill-rule="nonzero" fill="#FFDB43">
                        <path d="M84.2806385,39.9168399 C83.4026427,39.9168399 82.6907865,39.2019293 82.6907865,38.3201663 L82.6907865,36.7234927 C82.6907865,35.8417297 83.4026427,35.1268191 84.2806385,35.1268191 C85.1586342,35.1268191 85.8704905,35.8417297 85.8704905,36.7234927 L85.8704905,38.3201663 C85.8704905,39.2019293 85.158833,39.9168399 84.2806385,39.9168399 Z" id="Shape"></path>
                        <path d="M89.9023552,37.5777131 C89.4804482,37.5789106 89.0756321,37.4104615 88.7783298,37.1098877 L87.6543044,35.9810395 C87.0443975,35.3467609 87.0616871,34.3358669 87.6932558,33.723343 C88.3093235,33.1257879 89.2860888,33.1257879 89.9023552,33.723343 L91.0263805,34.8521913 C91.6472178,35.4758919 91.647019,36.4867859 91.0259831,37.1102869 C90.7280846,37.4094636 90.3238647,37.5777131 89.9023552,37.5777131 L89.9023552,37.5777131 Z" id="Shape"></path>
                        <path d="M92.2298985,31.9334719 L90.6400465,31.9334719 C89.7620507,31.9334719 89.0501945,31.2185613 89.0501945,30.3367983 C89.0501945,29.4550353 89.7620507,28.7401247 90.6400465,28.7401247 L92.2298985,28.7401247 C93.1078943,28.7401247 93.8197505,29.4550353 93.8197505,30.3367983 C93.8197505,31.2185613 93.108093,31.9334719 92.2298985,31.9334719 Z" id="Shape"></path>
                        <path d="M88.7783298,27.418079 C87.900334,27.4178794 87.1886765,26.7029688 87.1888753,25.8210062 C87.1888753,25.3976881 87.3564059,24.9917339 87.6543044,24.6925572 L88.7783298,23.5637089 C89.4098985,22.9509854 90.4162748,22.9685489 91.0263805,23.6028274 C91.6213827,24.2215385 91.6213827,25.2024948 91.0263805,25.8214054 L89.9023552,26.9502536 C89.6042579,27.2496299 89.2000381,27.418079 88.7783298,27.418079 L88.7783298,27.418079 Z" id="Shape"></path>
                        <path d="M84.2806385,25.5467775 C83.4026427,25.5467775 82.6907865,24.8318669 82.6907865,23.950104 L82.6907865,22.3534304 C82.6907865,21.4716674 83.4026427,20.7567568 84.2806385,20.7567568 C85.1586342,20.7567568 85.8704905,21.4716674 85.8704905,22.3534304 L85.8704905,23.950104 C85.8704905,24.8318669 85.158833,25.5467775 84.2806385,25.5467775 Z" id="Shape"></path>
                        <path d="M79.7829471,27.418079 C79.3612389,27.418079 78.957019,27.2496299 78.6589218,26.9502536 L77.5348964,25.8214054 C76.9249894,25.1871268 76.9422791,24.1762328 77.5738478,23.5637089 C78.1899154,22.9661538 79.1666808,22.9661538 79.7829471,23.5637089 L80.9069725,24.6925572 C81.5278097,25.3162578 81.527611,26.3271518 80.9065751,26.9506528 C80.6086765,27.2498295 80.2044567,27.418079 79.7829471,27.418079 L79.7829471,27.418079 Z" id="Shape"></path>
                        <polygon id="Shape" points="7.96774207 0 10.4240634 4.99918503 15.9170021 5.80071518 11.9423721 9.69180873 12.8803848 15.1859626 7.96774207 12.591368 3.05509937 15.1859626 3.99311205 9.69180873 0.0184820296 5.80071518 5.51142072 4.99918503"></polygon>
                    </g>
                    <path d="M93.3173573,86.485422 C92.5611839,83.7940291 90.8200973,81.4894304 88.442871,80.033264 L87.787852,79.0465198 C84.1150951,73.5306112 78.339759,69.7800249 71.824148,68.6793181 C70.9548964,68.5547775 70.1496364,69.1615135 70.0256279,70.0344948 C69.9057928,70.8779376 70.4664144,71.6672931 71.2994968,71.8279584 C75.9990994,72.6290894 80.2819619,75.026894 83.4316575,78.6202079 C80.7835603,79.0986112 78.4675433,80.6958836 77.0722495,83.0062703 C75.3599789,86.0860541 76.4579704,89.9765489 79.5245962,91.6961663 C82.591222,93.4157838 86.4650951,92.3130811 88.1773658,89.2332973 C88.8313911,87.9653389 89.184537,86.5624615 89.2091797,85.1346362 C90.9007822,87.6020956 91.0361184,90.8243825 89.5573573,93.4261622 C89.1094165,94.1845821 89.3584271,95.1641414 90.1136068,95.6140042 C90.8687865,96.0638669 91.8441607,95.8137879 92.2921015,95.055368 C92.3064101,95.0310187 92.3201226,95.0064699 92.3332389,94.9813222 C93.7776195,92.3949106 94.1319577,89.335684 93.3173573,86.485422 L93.3173573,86.485422 Z M85.4046638,87.6749439 C84.5560803,89.2191268 82.6218266,89.7799584 81.0844397,88.9277339 C79.5468541,88.0755094 78.9884186,86.1329563 79.8370021,84.588973 C79.8417717,84.5803909 79.8465412,84.5716091 79.8513108,84.563027 C80.7895222,83.0202412 82.3720211,81.9859958 84.15663,81.7496881 C84.4330655,81.742104 84.7067188,81.8059709 84.951556,81.9349023 C86.2933911,82.6869356 86.3649345,85.947343 85.4046638,87.6749439 Z" id="Shape" fill="#2BB3CE" fill-rule="nonzero"></path>
                </g>
            </g>
        </g>
    </g>
</svg>