<?xml version="1.0" encoding="UTF-8"?>
<svg width="29px" height="27px" viewBox="0 0 29 27" version="1.1" xmlns="http://www.w3.org/2000/svg" xmlns:xlink="http://www.w3.org/1999/xlink">
    <!-- Generator: Sketch 47.1 (45422) - http://www.bohemiancoding.com/sketch -->
    <title>reliable</title>
    <desc>Created with Sketch.</desc>
    <defs></defs>
    <g id="Final-Web" stroke="none" stroke-width="1" fill="none" fill-rule="evenodd">
        <g id="Home-Page/Illustration" transform="translate(-547.000000, -2309.000000)" fill="#1474DF">
            <g id="reliable" transform="translate(547.000000, 2309.000000)">
                <g id="Group-3">
                    <path d="M4.73391016,8.62990244 L0.946804687,8.62990244 C0.426164062,8.62990244 0,9.04071951 0,9.54718902 L0,26.0589512 C0,26.5652012 0.424294922,26.976128 0.946804687,26.976128 L4.73391016,26.976128 C5.25641992,26.976128 5.68071484,26.5651463 5.68071484,26.0589512 L5.68071484,9.54718902 C5.68071484,9.04071951 5.25449414,8.62990244 4.73391016,8.62990244 Z" id="Shape" fill-rule="nonzero"></path>
                    <path d="M26.6361602,8.62990244 C26.4836836,8.60487805 19.3443027,8.62990244 19.3443027,8.62990244 L20.3415176,5.994 C21.0295879,4.17347561 20.5841094,1.3937378 18.6749238,0.405493902 C18.053293,0.0836890244 17.1847656,-0.0779268293 16.4845176,0.0928536585 C16.0829355,0.190756098 15.7300078,0.448353659 15.5196445,0.793481707 C15.2777324,1.19041463 15.3027109,1.65375 15.2165605,2.09387195 C14.9980977,3.21020122 14.453668,4.27159756 13.6105723,5.0682622 C12.1406348,6.45728049 7.57432422,10.4644756 7.57432422,10.4644756 L7.57432422,25.1416098 L23.3540059,25.1416098 C25.4832402,25.1428171 26.8786387,22.8390366 25.8284648,21.0395305 C27.0802793,20.2627317 27.5084258,18.6265427 26.7752695,17.3702744 C28.0271406,16.5934756 28.4552305,14.9572866 27.7220742,13.7010183 C29.8820078,12.3607317 29.1598965,9.04346341 26.6361602,8.62990244 Z" id="Shape" fill-rule="nonzero"></path>
                </g>
            </g>
        </g>
    </g>
</svg>