<?xml version="1.0" encoding="UTF-8"?>
<svg width="95px" height="84px" viewBox="0 0 95 84" version="1.1" xmlns="http://www.w3.org/2000/svg" xmlns:xlink="http://www.w3.org/1999/xlink">
    <!-- Generator: Sketch 47.1 (45422) - http://www.bohemiancoding.com/sketch -->
    <title>house</title>
    <desc>Created with Sketch.</desc>
    <defs></defs>
    <g id="Final-Web" stroke="none" stroke-width="1" fill="none" fill-rule="evenodd">
        <g id="Our-Team" transform="translate(-642.000000, -1444.000000)">
            <g id="house" transform="translate(642.000000, 1444.000000)">
                <g>
                    <polyline id="Shape" fill="#C97523" fill-rule="nonzero" points="24.2966667 59.274823 24.2966667 79.1371062 15.9931481 79.1371062 15.9931481 59.2716637"></polyline>
                    <polyline id="Shape" fill="#A85613" fill-rule="nonzero" points="19.6968519 59.274823 19.6968519 79.1371062 15.9931481 79.1371062 15.9931481 59.2716637"></polyline>
                    <ellipse id="Oval" fill="#8CC928" fill-rule="nonzero" cx="20.1448148" cy="31.8517965" rx="20.1448148" ry="31.7815487"></ellipse>
                    <path d="M20.1448148,63.6339027 C9.01814815,63.6339027 0,49.4038938 0,31.852354 C0,14.3008142 9.01814815,0.0708053097 20.1448148,0.0708053097 C15.2187037,0.0708053097 11.2272222,14.3008142 11.2272222,31.852354 C11.2272222,49.4038938 15.2187037,63.6339027 20.1448148,63.6339027 Z" id="Shape" fill="#82B20B" fill-rule="nonzero"></path>
                    <polygon id="Shape" fill="#E9EAEF" fill-rule="nonzero" points="86.7959259 43.4647965 86.7959259 83.9295664 33.8962963 83.9295664 33.8962963 43.4647965 60.4951852 17.5710531"></polygon>
                    <polyline id="Shape" fill="#9EB1B7" fill-rule="nonzero" points="73.8522222 29.1781062 73.8522222 21.7035929 87.0772222 21.7035929 87.0772222 41.8173186"></polyline>
                    <polyline id="Shape" fill="#879BA0" fill-rule="nonzero" points="73.8522222 29.1781062 73.8522222 21.7035929 77.0283333 21.7035929 77.0283333 41.8173186"></polyline>
                    <g id="Group" transform="translate(0.000000, 75.265487)" fill-rule="nonzero" fill="#85C10D">
                        <path d="M65.5933333,0.185097345 L92.1001852,0.185097345 C93.5994444,0.185097345 94.815,1.40476991 94.815,2.90952212 L94.815,8.66445133 L62.8785185,8.66445133 L62.8785185,2.90952212 C62.8785185,1.40476991 64.0938889,0.185097345 65.5933333,0.185097345 Z" id="Shape"></path>
                        <path d="M2.71481481,0.185097345 L33.4603704,0.185097345 C34.9596296,0.185097345 36.1751852,1.40476991 36.1751852,2.90952212 L36.1751852,8.66445133 L0,8.66445133 L0,2.90952212 C0,1.40476991 1.21537037,0.185097345 2.71481481,0.185097345 Z" id="Shape"></path>
                    </g>
                    <polygon id="Shape" fill="#D2D4D8" fill-rule="nonzero" points="86.7959259 45.0533628 86.7959259 52.6168938 60.3461111 27.2734248 33.8962963 52.6168938 33.8962963 45.0533628 58.2453704 21.7810885 60.3461111 19.822885 62.4451852 21.7810885"></polygon>
                    <polygon id="Shape" fill="#EA4756" fill-rule="nonzero" points="60.3453704 23.0643186 30.2307407 51.9179469 26.0198148 48.3704336 58.2457407 17.5710531 60.3453704 15.6137788 62.4453704 17.5710531 94.6712963 48.3704336 90.4603704 51.9179469"></polygon>
                    <rect id="Rectangle-path" fill="#C97523" fill-rule="nonzero" x="40.367037" y="53.6124425" width="17.4451852" height="30.3165664"></rect>
                    <path d="M59.0687037,83.9295664 L56.5583333,83.9295664 L56.5583333,54.8716991 L41.6231481,54.8716991 L41.6231481,83.9295664 L39.1127778,83.9295664 L39.1127778,53.6120708 C39.1127778,52.9162832 39.6746296,52.3524425 40.367963,52.3524425 L57.8137037,52.3524425 C58.507037,52.3524425 59.0688889,52.9162832 59.0688889,53.6120708 L59.0688889,83.9295664 L59.0687037,83.9295664 Z" id="Shape" fill="#8E480E" fill-rule="nonzero"></path>
                    <rect id="Rectangle-path" fill="#A0D9F2" fill-rule="nonzero" x="62.8794444" y="53.6124425" width="19.8668519" height="17.5069381"></rect>
                    <rect id="Rectangle-path" fill="#C97523" fill-rule="nonzero" x="62.8794444" y="53.6124425" width="19.8668519" height="5.31987611"></rect>
                    <g id="Group" transform="translate(50.000000, 52.221239)" fill-rule="nonzero" fill="#8E480E">
                        <path d="M32.7448148,20.1581416 L12.8785185,20.1581416 C12.1851852,20.1581416 11.6233333,19.5943009 11.6233333,18.8985133 L11.6233333,1.39120354 C11.6233333,0.695415929 12.1851852,0.131575221 12.8785185,0.131575221 L32.745,0.131575221 C33.4383333,0.131575221 34.0001852,0.695415929 34.0001852,1.39120354 L34.0001852,18.8985133 C34,19.5939292 33.4381481,20.1581416 32.7448148,20.1581416 Z M14.1337037,17.638885 L31.4898148,17.638885 L31.4898148,2.65083186 L14.1337037,2.65083186 L14.1337037,17.638885 Z" id="Shape"></path>
                        <path d="M3.89314815,17.7121062 L1.36092593,17.7121062 C0.667592593,17.7121062 0.105740741,17.1482655 0.105740741,16.4524779 C0.105740741,15.7566903 0.667592593,15.1928496 1.36092593,15.1928496 L3.89314815,15.1928496 C4.58648148,15.1928496 5.14833333,15.7566903 5.14833333,16.4524779 C5.14833333,17.1482655 4.5862963,17.7121062 3.89314815,17.7121062 Z" id="Shape"></path>
                    </g>
                    <ellipse id="Oval" fill="#413740" fill-rule="nonzero" cx="60.3459259" cy="40.0839823" rx="4.85277778" ry="4.86995575"></ellipse>
                    <rect id="Rectangle-path" fill="#8E480E" fill-rule="nonzero" x="62.8794444" y="57.6723186" width="19.8668519" height="2.51925664"></rect>
                    <path d="M60.3461111,46.2146814 C56.9777778,46.2146814 54.2374074,43.4646106 54.2374074,40.084354 C54.2374074,36.7040973 56.9775926,33.9540265 60.3461111,33.9540265 C63.7146296,33.9540265 66.455,36.7040973 66.455,40.084354 C66.4548148,43.4646106 63.7144444,46.2146814 60.3461111,46.2146814 Z M60.3461111,36.4732832 C58.3622222,36.4732832 56.7477778,38.0932566 56.7477778,40.084354 C56.7477778,42.0754513 58.362037,43.6954248 60.3461111,43.6954248 C62.3301852,43.6954248 63.9446296,42.0754513 63.9446296,40.084354 C63.9446296,38.0932566 62.3301852,36.4732832 60.3461111,36.4732832 Z" id="Shape" fill="#EA4756" fill-rule="nonzero"></path>
                    <g id="Group" transform="translate(2.407407, 71.176991)" fill-rule="nonzero" fill="#85C10D">
                        <path d="M6.28240741,6.69584071 C5.48240741,6.69584071 4.83407407,6.04502655 4.83407407,5.24238053 L4.83407407,1.56515044 C4.83407407,0.762504425 5.48240741,0.111690265 6.28240741,0.111690265 C7.08240741,0.111690265 7.73074074,0.762504425 7.73074074,1.56515044 L7.73074074,5.24238053 C7.73074074,6.04521239 7.08222222,6.69584071 6.28240741,6.69584071 Z" id="Shape"></path>
                        <path d="M1.63018519,6.69584071 C0.830185185,6.69584071 0.181851852,6.04502655 0.181851852,5.24238053 L0.181851852,1.56515044 C0.181851852,0.762504425 0.830185185,0.111690265 1.63018519,0.111690265 C2.43018519,0.111690265 3.07851852,0.762504425 3.07851852,1.56515044 L3.07851852,5.24238053 C3.07851852,6.04521239 2.43018519,6.69584071 1.63018519,6.69584071 Z" id="Shape"></path>
                        <path d="M26.6888889,6.69584071 C25.8888889,6.69584071 25.2405556,6.04502655 25.2405556,5.24238053 L25.2405556,1.56515044 C25.2405556,0.762504425 25.8888889,0.111690265 26.6888889,0.111690265 C27.4888889,0.111690265 28.1372222,0.762504425 28.1372222,1.56515044 L28.1372222,5.24238053 C28.1372222,6.04521239 27.4890741,6.69584071 26.6888889,6.69584071 Z" id="Shape"></path>
                    </g>
                </g>
            </g>
        </g>
    </g>
</svg>