<?xml version="1.0" encoding="UTF-8"?>
<svg width="20px" height="16px" viewBox="0 0 20 16" version="1.1" xmlns="http://www.w3.org/2000/svg" xmlns:xlink="http://www.w3.org/1999/xlink">
    <!-- Generator: Sketch 47.1 (45422) - http://www.bohemiancoding.com/sketch -->
    <title>Twitter_icon</title>
    <desc>Created with Sketch.</desc>
    <defs></defs>
    <g id="Final-Web" stroke="none" stroke-width="1" fill="none" fill-rule="evenodd">
        <g id="Home-Page/Illustration" transform="translate(-221.000000, -3449.000000)" fill="#1474DF">
            <g id="Group-7" transform="translate(221.000000, 3427.000000)">
                <g id="Group-2" transform="translate(0.000000, 1.000000)">
                    <path d="M20,22.8941538 C19.25625,23.2153846 18.46375,23.4283077 17.6375,23.5316923 C18.4875,23.032 19.13625,22.2467692 19.44125,21.3003077 C18.64875,21.7655385 17.77375,22.0941538 16.84125,22.2775385 C16.08875,21.4886154 15.01625,21 13.84625,21 C11.57625,21 9.74875,22.8141538 9.74875,25.0381538 C9.74875,25.3581538 9.77625,25.6658462 9.84375,25.9587692 C6.435,25.7950769 3.41875,24.1864615 1.3925,21.736 C1.03875,22.3403077 0.83125,23.032 0.83125,23.7766154 C0.83125,25.1747692 1.5625,26.4141538 2.6525,27.1316923 C1.99375,27.1193846 1.3475,26.9310769 0.8,26.6344615 L0.8,26.6787692 C0.8,28.6406154 2.22125,30.2701538 4.085,30.6455385 C3.75125,30.7353846 3.3875,30.7784615 3.01,30.7784615 C2.7475,30.7784615 2.4825,30.7636923 2.23375,30.7095385 C2.765,32.3083077 4.2725,33.4836923 6.065,33.5218462 C4.67,34.5963077 2.89875,35.2436923 0.98125,35.2436923 C0.645,35.2436923 0.3225,35.2289231 0,35.1883077 C1.81625,36.3415385 3.96875,37 6.29,37 C13.835,37 17.96,30.8461538 17.96,25.512 C17.96,25.3335385 17.95375,25.1612308 17.945,24.9901538 C18.75875,24.4215385 19.4425,23.7113846 20,22.8941538" id="Twitter_icon"></path>
                </g>
            </g>
        </g>
    </g>
</svg>