<?xml version="1.0" encoding="UTF-8"?>
<svg width="74px" height="81px" viewBox="0 0 74 81" version="1.1" xmlns="http://www.w3.org/2000/svg" xmlns:xlink="http://www.w3.org/1999/xlink">
    <!-- Generator: Sketch 47.1 (45422) - http://www.bohemiancoding.com/sketch -->
    <title>snack</title>
    <desc>Created with Sketch.</desc>
    <defs></defs>
    <g id="Final-Web" stroke="none" stroke-width="1" fill="none" fill-rule="evenodd">
        <g id="Our-Team" transform="translate(-123.000000, -1608.000000)">
            <g id="snack" transform="translate(123.000000, 1607.000000)">
                <g transform="translate(0.000000, 1.601562)" id="Shape">
                    <path d="M30.1537934,14.7706603 C30.4634705,14.4415894 30.9839784,14.4334565 31.3030396,14.7531434 L33.2599487,16.7100526 C33.8242492,17.274353 34.0857544,18.073883 33.9631348,18.8621522 L33.6165467,21.0962066 C33.5833892,21.3101654 33.7679443,21.4953461 33.9825287,21.4621886 L36.2165832,21.1156006 C37.0048524,20.992981 37.8043823,21.2544862 38.3686828,21.8181611 C38.9329834,22.3824615 39.1938629,23.1819916 39.071869,23.9708862 L38.7252808,26.2049408 C38.6921235,26.4195252 38.8766785,26.6040802 39.0906372,26.5702973 L41.3246918,26.2237091 C42.1135864,26.101715 42.9131164,26.3625946 43.477417,26.9268951 C44.0410919,27.4911957 44.3025971,28.2907257 44.1799775,29.0789947 L43.8333892,31.3136749 C43.8002319,31.5276337 43.9854126,31.7121886 44.1993713,31.6790313 L46.4334259,31.3324433 C47.2216949,31.2098236 48.021225,31.4713287 48.5855255,32.0356293 C49.1498261,32.5999298 49.4113311,33.3994599 49.2887115,34.1877289 L48.9421235,36.4217834 C48.908966,36.6363678 49.0935211,36.8209229 49.3074799,36.7877655 L51.5415343,36.4411773 C52.3304291,36.3185577 53.1299591,36.5800629 53.6942597,37.1443634 C54.2585601,37.7080382 54.5194396,38.5081939 54.3974457,39.296463 L54.0508575,41.5305176 C54.0177002,41.7444764 54.2022553,41.9296571 54.4162139,41.895874 L56.6502686,41.549286 C57.4391632,41.4272919 58.2386933,41.6881714 58.8023682,42.2524718 C59.3666688,42.8167725 59.6281738,43.6163026 59.5055542,44.4051972 L59.158966,46.6392518 C59.1258087,46.8532104 59.3103638,47.0377655 59.5249482,47.0046082 L61.7590028,46.65802 C62.5472716,46.5354004 63.3468018,46.7969054 63.9111024,47.3612061 L65.6721954,49.1216737 C65.9900055,49.4401093 65.9837494,49.9574891 65.658432,50.2677918 L57.9853211,57.2896424 L23.1288146,22.4337616 L30.1537934,14.7706603 Z" fill="#6F1C7D" fill-rule="nonzero"></path>
                    <path d="M73.24646,43.5712586 C73.24646,50.0751037 66.5299072,47.5745391 58.2443237,47.5745391 C49.9587402,47.5745391 43.2421875,50.0751037 43.2421875,43.5712586 C43.2421875,37.0667877 49.9587402,29.8441162 58.2443237,29.8441162 C66.5299072,29.8441162 73.24646,37.0667877 73.24646,43.5712586 Z M67.6947938,21.8682099 C73.5536347,16.009369 73.1957856,6.15287785 68.5969238,1.55339054 C63.9974365,-3.04547119 61.0164032,3.47213753 55.1581879,9.33097843 C49.2993468,15.1898193 42.7811127,18.1708526 47.3806,22.7703399 C51.9794617,27.3692017 61.8359527,27.7264252 67.6947938,21.8682099 L67.6947938,21.8682099 Z M37.7655946,18.489914 C31.9536743,15.5701904 31.1735382,22.6946411 27.4536591,30.0981141 C23.7344054,37.5022125 18.4842834,42.3813477 24.2962036,45.3010712 C30.1081239,48.2207948 39.5773621,45.4612275 43.2972412,38.0577545 C47.0164947,30.6536561 43.5781402,21.4096375 37.7655946,18.489914 Z" fill="#FDBF43" fill-rule="nonzero"></path>
                    <path d="M73.24646,43.5712586 C73.24646,50.0751037 66.5299072,47.5745391 58.2443237,47.5745391 C49.9587402,47.5745391 43.2421875,50.0751037 43.2421875,43.5712586 C43.2421875,42.836792 43.3285216,42.0935669 43.4918061,41.3528442 C44.7786865,45.4499664 50.8940278,43.4824219 58.2443237,43.4824219 C65.5946197,43.4824219 71.7099609,45.4499664 72.9968414,41.3528442 C73.1601258,42.0935669 73.24646,42.836792 73.24646,43.5712586 Z M49.1254272,24.1616973 C47.1384888,20.3542328 52.8534394,17.4213715 58.0510102,12.2238007 C63.248581,7.0262299 66.1814423,1.3112793 69.9882812,3.29884334 C69.5803833,2.65884391 69.1161805,2.07264705 68.5969238,1.55339054 C63.9974365,-3.04547119 61.0164032,3.47213753 55.1581879,9.33097843 C49.2993468,15.1898193 42.7811127,18.1708526 47.3806,22.7697144 C47.899231,23.2889709 48.4860535,23.7531738 49.1254272,24.1616973 Z M27.4542847,30.0987397 C23.7344054,37.5022125 18.4842834,42.3813477 24.2962036,45.3010712 C24.9524688,45.6307677 25.6550293,45.8872681 26.3907471,46.0737 C23.3071137,43.0845337 27.8102569,38.503189 31.109726,31.9355317 C34.4098205,25.3672485 35.3970337,19.0198058 39.6355439,19.7092285 C39.0468446,19.2300109 38.4218598,18.8196105 37.7655946,18.489914 C31.9536743,15.5701904 31.1735382,22.6946411 27.4542847,30.0987397 Z" fill="#FCB30B" fill-rule="nonzero"></path>
                    <path d="M62.3358154,30.4396973 C63.2867432,30.7199707 64.1995087,31.0922089 65.0634766,31.5407715 L65.0634766,47.9336396 C64.1995087,47.8742065 63.2867432,47.8010102 62.3358154,47.7365723 L62.3358154,30.4396973 Z M56.8804932,29.9110566 L56.8804932,47.59581 C57.3296815,47.5820465 57.7845001,47.5739136 58.2443237,47.5739136 C58.7041474,47.5739136 59.158966,47.5820465 59.6081543,47.59581 L59.6081543,29.9110566 C59.158966,29.8678895 58.7047729,29.8441162 58.2443237,29.8441162 C57.7845001,29.8441162 57.3296815,29.8678895 56.8804932,29.9110566 L56.8804932,29.9110566 Z M67.7911377,33.3300171 L67.7911377,48.046875 C68.8265229,48.0443726 69.7449189,47.9636689 70.5187988,47.7447052 L70.5187988,36.1471405 C69.7442931,35.1223907 68.8265229,34.1689605 67.7911377,33.3300171 L67.7911377,33.3300171 Z M45.9698486,36.1471405 L45.9698486,47.7447052 C46.7443543,47.9636689 47.6621246,48.0443726 48.6975098,48.046875 L48.6975098,33.3300171 C47.6621246,34.1689605 46.7443543,35.1223907 45.9698486,36.1471405 L45.9698486,36.1471405 Z M51.4251709,47.9336396 C52.2891388,47.8748321 53.2019043,47.8016357 54.152832,47.7365723 L54.152832,30.4396973 C53.2019043,30.7199707 52.2891388,31.0922089 51.4251709,31.5407715 L51.4251709,47.9336396 Z M52.1502533,12.109314 C51.4320527,12.7361756 50.7344971,13.3292541 50.0819854,13.8985596 L61.673294,25.4898682 C62.6016998,25.1964569 63.510086,24.814209 64.3809356,24.3399963 L52.1502533,12.109314 Z M56.1072388,8.35127254 C55.7988129,8.6784668 55.4835053,9.00566105 55.1581879,9.33097843 C54.8328705,9.65629582 54.5056763,9.972229 54.178482,10.2800293 L66.6831817,22.7853546 C67.0316466,22.4981994 67.3694764,22.1929015 67.6947938,21.8682099 C68.0201112,21.5428925 68.3247833,21.2044373 68.612564,20.8565978 L56.1072388,8.35127254 Z M58.4795532,26.1542664 L48.0731506,15.7472382 C47.3430634,16.4810791 46.7506104,17.1873931 46.3577271,17.8899536 L54.5582275,26.0904541 C55.8313446,26.2681274 57.1545106,26.2925263 58.4795532,26.1542664 Z M71.9176636,8.73164364 L63.7165375,0.531143148 C63.0146026,0.924026449 62.3082886,1.51585392 61.5744477,2.24594124 L71.9808502,12.6529693 C72.1197358,11.3273009 72.0947113,10.0041352 71.9176636,8.73164364 Z M57.9365234,6.32304386 L70.1672059,18.5537262 C70.6407929,17.6828765 71.0230409,16.7744903 71.3170776,15.8460846 L59.725769,4.25477596 C59.1564637,4.90791317 58.5627594,5.60484318 57.9365234,6.32304386 Z M24.0716095,36.0307769 L38.7196503,43.3898315 C39.5085449,42.8186493 40.2505187,42.170517 40.9280548,41.4466857 L25.4723511,33.6816102 C24.987503,34.502411 24.5120391,35.2850494 24.0716095,36.0307769 L24.0716095,36.0307769 Z M27.4542847,30.0987397 C27.2478332,30.5091401 27.036377,30.9120331 26.8224181,31.3074189 L42.6253358,39.2464141 C42.8655701,38.8641662 43.0907899,38.4687804 43.2972412,38.0577545 C43.5036925,37.6467285 43.6863709,37.2300721 43.8496552,36.8090362 L28.0467377,28.8700409 C27.8571777,29.2779389 27.6607362,29.6877137 27.4542847,30.0987397 L27.4542847,30.0987397 Z M21.7912598,40.9899902 L32.1544952,46.1963195 C33.4182281,45.9648438 34.6825867,45.572586 35.8968964,45.0239258 L22.7459412,38.4174805 C22.2836152,39.3433838 21.9432831,40.1998443 21.7912598,40.9899902 Z M43.1752472,24.2599181 L32.8113861,19.0535889 C32.2683564,19.6472931 31.7847596,20.4318085 31.3174286,21.355835 L44.4677582,27.9622803 C44.1831055,26.6603852 43.7433014,25.4122925 43.1752472,24.2599181 Z M30.1938324,23.8438873 C29.8585053,24.6421661 29.5144195,25.4904937 29.1459351,26.3694764 L44.6016388,34.1345519 C44.778061,33.1585998 44.8550109,32.175766 44.8418731,31.2023163 L30.1938324,23.8438873 Z" fill="#FC9302" fill-rule="nonzero"></path>
                    <path d="M0.0938416328,42.1417389 C2.20214844,40.2843018 4.3504943,38.471283 6.54388428,36.7095643 C8.10040283,35.4589692 9.67694092,34.2315216 11.2747498,33.0303497 L16.3340606,29.2285156 L21.99646,23.5661163 L25.8233184,19.499649 C26.1329956,19.170578 26.6535034,19.1630707 26.9731903,19.4821319 L28.7305298,21.2394715 C29.2948302,21.803772 29.5557099,22.6039277 29.4337158,23.3921967 L29.0871278,25.6262511 C29.0533447,25.84021 29.2385254,26.0247651 29.4524842,25.9916076 L31.6865387,25.6450195 C32.4754334,25.5230255 33.2749634,25.7839051 33.8386383,26.3482056 C34.4029389,26.912506 34.6644439,27.7120361 34.5418243,28.5009307 L34.1952362,30.7349854 C34.1620789,30.9489442 34.3472596,31.1334991 34.5612183,31.1003418 L36.7952729,30.7537537 C37.5835419,30.631134 38.3830719,30.8926392 38.9473725,31.4569396 C39.5116729,32.0212402 39.7731781,32.8207703 39.6505585,33.6090392 L39.3039703,35.8430938 C39.270813,36.0576782 39.4553681,36.2422333 39.6693267,36.209076 L41.9033813,35.8624878 C42.692276,35.7398682 43.4918061,36.0013732 44.0561065,36.5656738 C44.6204071,37.1299744 44.8812866,37.9295044 44.7592926,38.7177734 L44.4127045,40.951828 C44.379547,41.1657867 44.5641021,41.3509674 44.778061,41.3171845 L47.0121154,40.9705963 C47.8010102,40.8486024 48.5999146,41.1094819 49.164215,41.6737823 C49.7285156,42.2380829 49.9900207,43.0376129 49.8674012,43.8265076 L49.520813,46.0605621 C49.4876557,46.2745209 49.6722108,46.459076 49.886795,46.4259185 L52.1208496,46.0793305 C52.9091187,45.9567109 53.7086486,46.2182159 54.2729492,46.7825165 C54.8372498,47.346817 55.0981293,48.1463471 54.9761353,48.9346161 L54.629547,51.1686707 C54.5963897,51.3826294 54.7809448,51.5678101 54.9949035,51.5346527 L57.2295838,51.1880645 C58.0178527,51.0654449 58.8173828,51.3269501 59.3816834,51.8912506 L60.9156799,53.4252472 C61.2341156,53.7430572 61.2278595,54.2610626 60.9019165,54.5713653 L56.8567199,58.4257508 L56.8529663,58.4219971 L51.190567,64.0843964 L51.1561584,64.1194306 L47.383728,69.1387023 C46.1863097,70.7327576 44.962616,72.3042909 43.7157745,73.8564301 C41.9546815,76.0498199 40.1416626,78.1981659 38.2848511,80.3064727 C17.8142548,78.9676666 1.44578556,62.607956 0.0938416328,42.1417389 Z" fill="#CB39E4" fill-rule="nonzero"></path>
                    <path d="M52.3585815,56.3437196 C51.717331,56.9061431 50.7357482,56.8348236 50.13266,56.2317353 L24.921814,31.0215148 C24.2968292,30.3959045 23.2827148,30.3959045 22.6571045,31.0215148 C22.0314941,31.6464996 22.0314941,32.6606141 22.6571045,33.2862244 L47.9061127,58.5352325 C48.5317231,59.1608429 48.5317231,60.1749572 47.9061127,60.8005675 C47.2811279,61.4255523 46.2670136,61.4255523 45.6414032,60.8005675 L20.0820923,35.2412568 C19.5177918,34.6769561 18.6250458,34.6143951 17.9875488,35.0936127 L15.3324585,37.0886841 C12.7155304,39.055603 10.1542817,41.091339 7.64871208,43.1902618 C5.4246674,45.0527039 3.24879452,46.9695741 1.11671444,48.9327393 C0.593078613,46.7324677 0.247116129,44.4633789 0.0932159023,42.1417389 C2.20152287,40.2843018 4.3504943,38.471283 6.54388428,36.7095643 C8.10040283,35.4589692 9.67694092,34.2315216 11.2747498,33.0303497 L16.3340606,29.2285156 L21.99646,23.5661163 L25.8233184,19.5002746 C26.1329956,19.170578 26.6535034,19.1630707 26.9731903,19.4827576 L28.7305298,21.2400971 C29.2948302,21.8043975 29.5557099,22.6039277 29.4337158,23.3921967 L29.3142242,24.1604462 L27.1195831,26.4920959 C26.5265045,27.1227111 26.5415191,28.1105499 27.1533661,28.7223969 L52.4361572,54.0058136 C53.086792,54.6558228 53.0605164,55.7262421 52.3585815,56.3437196 L52.3585815,56.3437196 Z M5.89324951,50.4967651 C4.44746395,51.941925 3.67921444,53.8838195 3.53532414,56.0740815 C7.65371696,65.3118438 15.0865937,72.7447205 24.324356,76.8631134 C26.514618,76.7192231 28.4558868,75.9509736 29.9016724,74.505188 C34.2796935,70.1271668 32.4547882,61.2034608 25.8245697,54.5738678 C19.1949767,47.9436493 10.2712707,46.118744 5.89324951,50.4967651 Z" fill="#A528BA" fill-rule="nonzero"></path>
                </g>
            </g>
        </g>
    </g>
</svg>